<?xml version="1.0" standalone="no"?>
<!DOCTYPE svg PUBLIC "-//W3C//DTD SVG 20010904//EN"
 "http://www.w3.org/TR/2001/REC-SVG-20010904/DTD/svg10.dtd">
<svg version="1.0" xmlns="http://www.w3.org/2000/svg"
 width="260.000000pt" height="260.000000pt" viewBox="0 0 260.000000 260.000000"
 preserveAspectRatio="xMidYMid meet">
<metadata>
Created by potrace 1.14, written by Peter Selinger 2001-2017
</metadata>
<g transform="translate(0.000000,260.000000) scale(0.100000,-0.100000)"
fill="#000000" stroke="none">
<path d="M1274 2134 c-66 -27 -191 -206 -237 -337 -6 -16 -9 -16 -44 6 -64 40
-184 83 -258 93 -11 1 -22 3 -25 4 -16 6 -65 -4 -77 -15 -31 -31 -54 -206 -43
-324 7 -71 11 -67 -77 -75 -130 -11 -285 -67 -304 -110 -9 -20 -7 -36 15 -93
42 -110 95 -191 182 -280 l82 -82 -25 -23 c-42 -39 -123 -171 -123 -200 0 -50
124 -151 246 -201 147 -59 298 -55 439 13 71 34 200 150 242 215 15 25 31 45
35 45 3 0 17 -17 29 -37 13 -21 48 -63 79 -93 131 -132 227 -178 385 -184 145
-6 311 63 427 174 53 53 51 81 -17 185 -28 43 -37 53 -67 82 l-28 26 56 50
c98 89 178 210 220 333 21 62 9 89 -54 116 -26 12 -49 21 -52 21 -3 0 -20 6
-37 14 -18 7 -33 11 -33 8 0 -2 -12 0 -26 5 -26 10 -95 21 -149 24 -29 1 -30
2 -26 46 10 109 4 201 -20 294 -10 39 -18 51 -43 61 -17 7 -34 11 -37 9 -4 -2
-25 -6 -47 -9 -23 -3 -52 -9 -66 -15 -15 -5 -26 -8 -26 -5 0 6 -66 -22 -132
-56 -61 -31 -78 -35 -78 -18 0 37 -94 198 -160 272 -57 64 -85 78 -126 61z"/>
</g>
</svg>
