<?xml version="1.0" standalone="no"?>
<!DOCTYPE svg PUBLIC "-//W3C//DTD SVG 20010904//EN"
 "http://www.w3.org/TR/2001/REC-SVG-20010904/DTD/svg10.dtd">
<svg version="1.0" xmlns="http://www.w3.org/2000/svg"
 width="500.000000pt" height="500.000000pt" viewBox="0 0 500.000000 500.000000"
 preserveAspectRatio="xMidYMid meet">
<metadata>
Created by potrace 1.14, written by Peter Selinger 2001-2017
</metadata>
<g transform="translate(0.000000,500.000000) scale(0.100000,-0.100000)"
fill="#000000" stroke="none">
<path d="M2416 4019 c-256 -242 -490 -630 -557 -922 -11 -44 -17 -56 -29 -51
-74 29 -263 87 -340 103 -167 35 -241 42 -409 42 -98 -1 -137 -4 -142 -13 -9
-14 -5 -269 6 -358 31 -266 122 -533 248 -727 l44 -69 -66 -37 c-112 -61 -240
-157 -343 -258 -54 -52 -98 -100 -98 -105 0 -18 161 -174 246 -237 244 -183
474 -271 714 -270 114 0 148 4 257 33 l72 20 78 -56 c128 -92 320 -176 403
-176 88 -1 293 90 416 182 l67 52 61 -18 c248 -71 501 -43 753 85 65 32 226
138 277 181 77 66 130 117 167 162 l41 48 -78 74 c-123 114 -190 167 -316 250
l-117 76 45 71 c79 122 177 355 198 469 2 14 7 32 10 40 3 8 8 33 11 55 3 22
10 65 15 95 22 127 30 404 11 423 -11 11 -221 13 -321 2 -170 -17 -358 -60
-497 -115 -43 -16 -80 -26 -83 -22 -4 4 -12 32 -19 62 -36 151 -128 355 -237
522 -104 162 -208 285 -361 431 l-40 38 -87 -82z m136 -291 c160 -188 282
-398 349 -600 59 -177 53 -204 -56 -295 -73 -60 -115 -107 -177 -193 -46 -65
-123 -212 -148 -282 l-14 -37 -65 132 c-91 181 -180 299 -311 406 -36 30 -68
58 -71 63 -4 6 -2 29 3 52 5 22 12 52 14 66 20 103 105 297 194 439 62 100
215 301 229 301 5 0 29 -24 53 -52z m-1262 -773 c158 -17 349 -71 490 -138
116 -55 201 -116 288 -207 81 -85 177 -243 217 -360 1 -3 4 -12 8 -20 15 -37
47 -154 58 -212 13 -70 13 -70 23 -153 4 -33 9 -71 12 -84 3 -25 -12 -54 -25
-47 -4 3 -31 7 -61 11 -286 32 -535 117 -700 240 -187 138 -332 379 -394 655
-27 117 -28 128 -41 258 l-7 73 38 -5 c22 -3 64 -8 94 -11z m2555 -17 c-20
-295 -115 -579 -256 -769 -145 -196 -402 -341 -694 -392 -85 -15 -114 -19
-229 -33 l-49 -6 8 93 c3 52 8 96 10 99 2 3 6 26 10 50 8 59 49 204 80 287
141 373 439 596 902 674 37 6 85 13 107 15 21 2 40 5 42 6 2 2 18 5 37 6 33 2
34 1 32 -30z m-84 -1169 c30 -18 87 -58 128 -88 l74 -55 -39 -34 c-104 -92
-324 -210 -424 -229 -14 -2 -45 -9 -69 -14 -49 -11 -173 -14 -211 -5 -14 3
-36 8 -50 11 -50 9 -97 22 -112 31 -16 9 -129 157 -124 162 2 1 47 14 102 28
183 48 370 134 517 239 l47 34 54 -24 c29 -13 78 -38 107 -56z m-2326 60 c11
-17 165 -112 240 -148 85 -41 179 -74 298 -106 49 -13 91 -26 93 -28 9 -9
-100 -153 -125 -163 -97 -41 -284 -57 -386 -34 -145 32 -239 80 -468 238 l-47
33 42 36 c65 54 126 94 213 140 79 42 128 53 140 32z m1219 -388 c56 -27 116
-63 135 -81 l33 -32 -50 -35 c-60 -42 -237 -126 -267 -126 -41 -1 -206 75
-278 128 l-48 36 30 25 c16 13 85 52 153 85 146 71 148 71 292 0z"/>
</g>
</svg>
